<svg viewBox="0 0 1024 1024" version="1.1" xmlns="http://www.w3.org/2000/svg"
     width="15" height='30'>
    <path d="M581.973333 120.064a74.666667 74.666667 0 1 0 149.418667 0 74.666667 74.666667 0 0 0-149.333333 0z m0 783.872a74.666667 74.666667 0 1 0 149.418667 0 74.666667 74.666667 0 0 0-149.333333 0z m0-261.290667a74.666667 74.666667 0 1 0 149.418667 0 74.666667 74.666667 0 0 0-149.333333 0z m0-261.290666a74.666667 74.666667 0 1 0 149.418667 0 74.666667 74.666667 0 0 0-149.333333 0zM292.693333 120.064a74.666667 74.666667 0 1 0 149.333334 0 74.666667 74.666667 0 0 0-149.333334 0z m0 783.872a74.666667 74.666667 0 1 0 149.333334 0 74.666667 74.666667 0 0 0-149.333334 0z m0-261.290667a74.666667 74.666667 0 1 0 149.333334 0 74.666667 74.666667 0 0 0-149.333334 0z m0-261.290666a74.666667 74.666667 0 1 0 149.333334 0 74.666667 74.666667 0 0 0-149.333334 0z"
          fill="lightgray"></path>
</svg>