<svg viewBox="0 0 1024 1024" version="1.1" xmlns="http://www.w3.org/2000/svg" fill="currentColor">
    <path d="M350.272 565.216l-54.304-54.336a12.8 12.8 0 0 0-18.112 0l-197.312 197.312a12.8 12.8 0 0 0 0 18.112l197.312 197.312a12.8 12.8 0 0 0 18.112 0l54.304-54.336a12.8 12.8 0 0 0 1.472-16.32l-1.472-1.76-82.752-82.752H793.6a153.6 153.6 0 0 0 153.6-153.6V250.368a153.6 153.6 0 0 0-153.6-153.6H320.064a12.8 12.8 0 0 0-12.8 12.8v76.8c0 7.04 5.76 12.8 12.8 12.8H768a76.8 76.8 0 0 1 76.672 72.288l0.128 4.48v313.312a76.8 76.8 0 0 1-72.288 76.672l-4.512 0.128H267.52l82.752-82.752a12.8 12.8 0 0 0 0-18.08z"/>
</svg>