<svg xmlns="http://www.w3.org/2000/svg" version="1.1"
     width="476.1407775878906" height="311.9999694824219" fill="#000"
     viewBox="0 0 476.1407775878906 311.9999694824219">
    <g clip-path="url(#master_svg0_1_861)">
        <g transform="matrix(0.46349653601646423,0.8860987424850464,-0.8860987424850464,0.46349653601646423,274.20441043988285,-211.14849526393664)">
            <path d="M311.47052001953125,148.1240109375L312.15362501953126,324.5342109375L361.8216200195312,378.7272109375L361.84172001953124,120.8661499023L311.47052001953125,148.1240109375Z"
                  fill-opacity="1"/>
        </g>
        <g>
            <path d="M55.8354,309.9999694824219L143.693,71.49996948242188L176.673,152.89996948242188L222.581,128.31296948242186L171.731,3.999969482421875L114.654,3.999938964821875L0,309.9999694824219L55.8354,309.9999694824219ZM268.755,241.19396948242186L222.289,265.4879694824219L240.323,309.9999694824219L296.9,309.9999694824219L268.755,241.19396948242186Z"
                  fill-rule="evenodd" fill-opacity="1"
                  style="mix-blend-mode:passthrough"/>
        </g>
        <g>
            <path d="M342.45600703125,262.54Q331.35500703125,259.618,323.53150703125,253.358Q315.94820703125,247.447,310.31730703125,243.06L337.33110703125,309.172Q351.99440703125003,312,366.87820703125,312Q390.34920703125,312,410.22420703125,306.469Q430.10120703125,300.94,444.48020703124996,290.088Q458.85720703125,279.443,466.99820703125,263.896Q475.13920703125,248.348,476.14120703125,228.313C476.14120703125,165.779,432.13320703125,146.033,378.71920703125,131.269Q363.91820703125,127.304,352.18270703125,122.714Q340.44740703125,118.122,332.20090703125,112.487Q323.95450703125,107.061,319.61970703125,100.174Q315.28510703125,93.2877,315.28510703125,84.731Q315.28510703125,76.5914,318.56260703125,69.6007C326.59110703125,52.4719,348.46890703125,47.748,364.76420703125,47.748C380.04920703125003,47.748,393.12220703125,50.8491,405.54620703125,60Q411.88920703125,66.2607,417.06120703125,74.5Q420.33820703125,83.0567,421.06620703125,87.5L471.63520703125,87.5Q471.63520703125,67.0476,464.62520703125,53.5Q456.58920703125,36.3865,442.09520703124997,25Q427.71620703125,12.687,409.90720703125,6.88693Q389.92620703125,0,365.82120703124997,0Q342.56190703125003,0,322.68570703125,5.94782Q302.80960703125,11.8957,288.21990703125,22.9567Q273.62990703125,34.018,265.38357703125,49.6698Q257.13720703125,65.3215,257.13720703125,84.5224Q257.13720703125,101.217,263.37476703125,115.409Q269.61250703125,129.6,281.87650703125,141.288Q294.14050703125,152.975,313.48780703125,162.783Q332.83520703125,172.591,358.42020703125,179.479C387.47720703125003,187.199,423.57720703125,191.769,423.57720703125,228.73C423.57720703125,240,414.55820703125,251,411.05320703125,253.5C399.45020703125,262.281,381.14720703125,265.462,366.87820703125,265.462Q353.55700703125,265.462,342.45600703125,262.54Z"
                  fill-rule="evenodd" fill-opacity="1"
                  style="mix-blend-mode:passthrough"/>
        </g>
    </g>
</svg>