<svg xmlns="http://www.w3.org/2000/svg"
     fill="#F7F7F0" version="1.1"
     width="743" height="743" viewBox="0 0 743 743">
    <g clip-path="url(#master_svg0_1_440)">
        <g transform="matrix(0.46349653601646423,0.8860987424850464,-0.8860987424850464,0.46349653601646423,535.7376367126435,-217.1014539023672)">
            <path d="M447.15313720703125,361.1240109375L447.83624220703126,537.5342109375L497.5042372070312,591.7272109375L497.52433720703124,333.8661499023L447.15313720703125,361.1240109375Z"
                  fill-opacity="1"/>
        </g>
        <g>
            <path d="M191.5180171875,522.9999694824219L279.3756171875,284.4999694824219L312.3556171875,365.89996948242185L358.2636171875,341.31296948242186L307.4136171875,217.00003051762187L250.3366171875,217.00000000002188L135.6826171875,522.9999694824219L191.5180171875,522.9999694824219ZM404.4376171875,454.19396948242183L357.9716171875,478.4879694824219L376.0056171875,522.9999694824219L432.5826171875,522.9999694824219L404.4376171875,454.19396948242183Z"
                  fill-rule="evenodd" fill-opacity="1"
                  style="mix-blend-mode:passthrough"/>
        </g>
        <g>
            <path d="M478.13862421875,475.54Q467.03762421875,472.618,459.21412421875,466.358Q451.63082421875,460.447,445.99992421875,456.06L473.01372421875,522.172Q487.67702421875003,525,502.56082421875,525Q526.03182421875,525,545.90682421875,519.469Q565.7838242187499,513.94,580.16282421875,503.088Q594.53982421875,492.443,602.68082421875,476.896Q610.82182421875,461.348,611.82382421875,441.313C611.82382421875,378.779,567.81582421875,359.033,514.40182421875,344.269Q499.60082421875,340.304,487.86532421875,335.714Q476.13002421875,331.122,467.88352421875,325.48699999999997Q459.63712421875,320.06100000000004,455.30232421875,313.174Q450.96772421875,306.2877,450.96772421875,297.731Q450.96772421875,289.5914,454.24522421875,282.6007C462.27372421875,265.4719,484.15152421875,260.748,500.44682421875,260.748C515.73182421875,260.748,528.80482421875,263.8491,541.22882421875,273Q547.57182421875,279.2607,552.74382421875,287.5Q556.02082421875,296.0567,556.74882421875,300.5L607.31782421875,300.5Q607.31782421875,280.0476,600.30782421875,266.5Q592.27182421875,249.3865,577.77782421875,238Q563.39882421875,225.687,545.58982421875,219.88693Q525.60882421875,213,501.50382421874997,213Q478.24452421875003,213,458.36832421875,218.94782Q438.49222421875,224.8957,423.90252421875,235.9567Q409.31252421875,247.018,401.06619421875,262.6698Q392.81982421875,278.3215,392.81982421875,297.5224Q392.81982421875,314.217,399.05738421875,328.409Q405.29512421875,342.6,417.55912421875,354.288Q429.82312421875,365.975,449.17042421875,375.783Q468.51782421875,385.591,494.10282421875,392.47900000000004C523.15982421875,400.199,559.25982421875,404.769,559.25982421875,441.73C559.25982421875,453,550.24082421875,464,546.7358242187499,466.5C535.13282421875,475.281,516.82982421875,478.462,502.56082421875,478.462Q489.23962421875,478.462,478.13862421875,475.54Z"
                  fill-rule="evenodd" fill-opacity="1"
                  style="mix-blend-mode:passthrough"/>
        </g>
        <g>
            <path d="M743,371.5Q743,380.62,742.552,389.729Q742.105,398.837,741.211,407.913Q740.317,416.989,738.979,426.01Q737.641,435.031,735.862,443.976Q734.082,452.921,731.867,461.767Q729.651,470.614,727.003,479.341Q724.356,488.068,721.284,496.655Q718.211,505.241,714.721,513.667Q711.231,522.092,707.332,530.337Q703.433,538.581,699.134,546.624Q694.835,554.667,690.146,562.489Q685.458,570.311,680.391,577.894Q675.324,585.477,669.892,592.802Q664.459,600.127,658.673,607.177Q652.888,614.227,646.763,620.984Q640.639,627.741,634.19,634.19Q627.741,640.639,620.984,646.763Q614.227,652.888,607.177,658.673Q600.127,664.459,592.802,669.891Q585.477,675.324,577.894,680.391Q570.311,685.458,562.489,690.146Q554.667,694.835,546.624,699.134Q538.581,703.433,530.337,707.332Q522.092,711.231,513.667,714.721Q505.241,718.211,496.655,721.284Q488.068,724.356,479.341,727.003Q470.614,729.651,461.767,731.867Q452.921,734.082,443.976,735.862Q435.031,737.641,426.01,738.979Q416.989,740.317,407.913,741.211Q398.837,742.105,389.729,742.552Q380.62,743,371.5,743Q362.38,743,353.271,742.552Q344.163,742.105,335.087,741.211Q326.011,740.317,316.99,738.979Q307.969,737.641,299.024,735.862Q290.079,734.082,281.233,731.867Q272.386,729.651,263.659,727.003Q254.932,724.356,246.345,721.284Q237.759,718.211,229.333,714.721Q220.907,711.231,212.663,707.332Q204.419,703.433,196.376,699.134Q188.333,694.835,180.511,690.146Q172.688,685.458,165.106,680.391Q157.523,675.324,150.198,669.892Q142.873,664.459,135.823,658.673Q128.773,652.888,122.016,646.763Q115.258,640.639,108.81,634.19Q102.361,627.741,96.2367,620.984Q90.1122,614.227,84.3266,607.177Q78.5411,600.127,73.1084,592.802Q67.6757,585.477,62.609,577.894Q57.5423,570.311,52.8538,562.489Q48.1653,554.667,43.8662,546.624Q39.5672,538.581,35.668,530.337Q31.7688,522.092,28.2787,513.667Q24.7887,505.241,21.7164,496.655Q18.644,488.068,15.9967,479.341Q13.3493,470.614,11.1334,461.767Q8.91745,452.921,7.13827,443.976Q5.35908,435.031,4.02093,426.01Q2.68277,416.989,1.78887,407.913Q0.894976,398.837,0.447488,389.729Q0,380.62,0,371.5Q0,362.38,0.447488,353.271Q0.894976,344.163,1.78887,335.087Q2.68277,326.011,4.02093,316.99Q5.35908,307.969,7.13827,299.024Q8.91745,290.079,11.1334,281.233Q13.3493,272.386,15.9967,263.659Q18.644,254.932,21.7164,246.345Q24.7887,237.759,28.2787,229.333Q31.7688,220.907,35.668,212.663Q39.5672,204.419,43.8662,196.376Q48.1653,188.333,52.8538,180.511Q57.5423,172.688,62.609,165.106Q67.6757,157.523,73.1084,150.198Q78.5411,142.873,84.3266,135.823Q90.1122,128.773,96.2366,122.016Q102.361,115.258,108.81,108.81Q115.258,102.361,122.016,96.2367Q128.773,90.1122,135.823,84.3266Q142.873,78.5411,150.198,73.1084Q157.523,67.6757,165.106,62.609Q172.688,57.5423,180.511,52.8538Q188.333,48.1653,196.376,43.8662Q204.419,39.5672,212.663,35.668Q220.907,31.7688,229.333,28.2787Q237.759,24.7887,246.345,21.7164Q254.932,18.644,263.659,15.9967Q272.386,13.3493,281.233,11.1334Q290.079,8.91745,299.024,7.13827Q307.969,5.35908,316.99,4.02093Q326.011,2.68277,335.087,1.78887Q344.163,0.894976,353.271,0.447488Q362.38,0,371.5,0Q380.62,0,389.729,0.447488Q398.837,0.894976,407.913,1.78887Q416.989,2.68277,426.01,4.02093Q435.031,5.35908,443.976,7.13827Q452.921,8.91745,461.767,11.1334Q470.614,13.3493,479.341,15.9967Q488.068,18.644,496.655,21.7164Q505.241,24.7887,513.667,28.2787Q522.092,31.7688,530.337,35.668Q538.581,39.5672,546.624,43.8662Q554.667,48.1653,562.489,52.8538Q570.311,57.5423,577.894,62.609Q585.477,67.6757,592.802,73.1084Q600.127,78.5411,607.177,84.3266Q614.227,90.1122,620.984,96.2366Q627.741,102.361,634.19,108.81Q640.639,115.258,646.763,122.016Q652.888,128.773,658.673,135.823Q664.459,142.873,669.891,150.198Q675.324,157.523,680.391,165.106Q685.458,172.688,690.146,180.511Q694.835,188.333,699.134,196.376Q703.433,204.419,707.332,212.663Q711.231,220.907,714.721,229.333Q718.211,237.759,721.284,246.345Q724.356,254.932,727.003,263.659Q729.651,272.386,731.867,281.233Q734.082,290.079,735.862,299.024Q737.641,307.969,738.979,316.99Q740.317,326.011,741.211,335.087Q742.105,344.163,742.552,353.271Q743,362.38,743,371.5ZM674,371.5Q674,364.074,673.636,356.657Q673.271,349.24,672.543,341.85Q671.815,334.46,670.726,327.114Q669.636,319.768,668.188,312.485Q666.739,305.202,664.934,297.999Q663.13,290.795,660.974,283.689Q658.819,276.583,656.317,269.591Q653.815,262.599,650.973,255.738Q648.132,248.878,644.957,242.165Q641.782,235.452,638.281,228.902Q634.781,222.353,630.963,215.984Q627.145,209.614,623.019,203.44Q618.894,197.266,614.47,191.301Q610.047,185.336,605.336,179.596Q600.625,173.856,595.638,168.353Q590.651,162.851,585.4,157.6Q580.149,152.349,574.647,147.362Q569.144,142.375,563.404,137.664Q557.664,132.953,551.699,128.53Q545.734,124.106,539.56,119.98Q533.385,115.855,527.016,112.037Q520.647,108.219,514.098,104.719Q507.548,101.218,500.835,98.0432Q494.122,94.8682,487.262,92.0264Q480.401,89.1846,473.409,86.6829Q466.417,84.1812,459.311,82.0256Q452.205,79.8699,445.001,78.0656Q437.798,76.2612,430.515,74.8125Q423.232,73.3637,415.886,72.2741Q408.54,71.1845,401.15,70.4566Q393.76,69.7288,386.343,69.3644Q378.926,69,371.5,69Q364.074,69,356.657,69.3644Q349.24,69.7288,341.85,70.4566Q334.46,71.1845,327.114,72.2741Q319.768,73.3637,312.485,74.8125Q305.202,76.2612,297.999,78.0655Q290.795,79.8699,283.689,82.0256Q276.583,84.1812,269.591,86.6829Q262.599,89.1846,255.738,92.0264Q248.878,94.8682,242.165,98.0432Q235.452,101.218,228.902,104.719Q222.353,108.219,215.984,112.037Q209.614,115.855,203.44,119.98Q197.266,124.106,191.301,128.53Q185.336,132.953,179.596,137.664Q173.856,142.375,168.353,147.362Q162.851,152.349,157.6,157.6Q152.349,162.851,147.362,168.353Q142.375,173.856,137.664,179.596Q132.953,185.336,128.53,191.301Q124.106,197.266,119.98,203.44Q115.855,209.614,112.037,215.984Q108.219,222.353,104.719,228.902Q101.218,235.452,98.0432,242.165Q94.8682,248.878,92.0264,255.738Q89.1846,262.599,86.6829,269.591Q84.1812,276.583,82.0255,283.689Q79.8699,290.795,78.0655,297.999Q76.2612,305.202,74.8124,312.485Q73.3637,319.768,72.2741,327.114Q71.1845,334.46,70.4566,341.85Q69.7287,349.24,69.3644,356.657Q69,364.074,69,371.5Q69,378.926,69.3644,386.343Q69.7287,393.76,70.4566,401.15Q71.1845,408.54,72.2741,415.886Q73.3637,423.232,74.8124,430.515Q76.2612,437.798,78.0655,445.001Q79.8699,452.205,82.0255,459.311Q84.1812,466.417,86.6829,473.409Q89.1846,480.401,92.0264,487.262Q94.8682,494.122,98.0432,500.835Q101.218,507.548,104.719,514.098Q108.219,520.647,112.037,527.016Q115.855,533.385,119.98,539.56Q124.106,545.734,128.53,551.699Q132.953,557.664,137.664,563.404Q142.375,569.144,147.362,574.647Q152.349,580.149,157.6,585.4Q162.851,590.651,168.353,595.638Q173.856,600.625,179.596,605.336Q185.336,610.047,191.301,614.47Q197.266,618.894,203.44,623.019Q209.614,627.145,215.984,630.963Q222.353,634.781,228.902,638.281Q235.452,641.782,242.165,644.957Q248.878,648.132,255.738,650.973Q262.599,653.815,269.591,656.317Q276.583,658.819,283.689,660.974Q290.795,663.13,297.999,664.934Q305.202,666.739,312.485,668.188Q319.768,669.636,327.114,670.726Q334.46,671.815,341.85,672.543Q349.24,673.271,356.657,673.636Q364.074,674,371.5,674Q378.926,674,386.343,673.636Q393.76,673.271,401.15,672.543Q408.54,671.815,415.886,670.726Q423.232,669.636,430.515,668.188Q437.798,666.739,445.001,664.934Q452.205,663.13,459.311,660.974Q466.417,658.819,473.409,656.317Q480.401,653.815,487.262,650.973Q494.122,648.132,500.835,644.957Q507.548,641.782,514.098,638.281Q520.647,634.781,527.016,630.963Q533.385,627.145,539.56,623.019Q545.734,618.894,551.699,614.47Q557.664,610.047,563.404,605.336Q569.144,600.625,574.647,595.638Q580.149,590.651,585.4,585.4Q590.651,580.149,595.638,574.647Q600.625,569.144,605.336,563.404Q610.047,557.664,614.47,551.699Q618.894,545.734,623.019,539.56Q627.145,533.385,630.963,527.016Q634.781,520.647,638.281,514.098Q641.782,507.548,644.957,500.835Q648.132,494.122,650.973,487.262Q653.815,480.401,656.317,473.409Q658.819,466.417,660.974,459.311Q663.13,452.205,664.934,445.001Q666.739,437.798,668.188,430.515Q669.636,423.232,670.726,415.886Q671.815,408.54,672.543,401.15Q673.271,393.76,673.636,386.343Q674,378.926,674,371.5Z"
                  fill-opacity="1"/>
        </g>
    </g>
</svg>