<svg t="1750836349338" class="icon" viewBox="0 0 1024 1024" version="1.1" xmlns="http://www.w3.org/2000/svg" p-id="7573" width="200" height="200"><path d="M0 0h768Q1024 0 1024 256v512Q1024 1024 768 1024h-512Q0 1024 0 768v-512Q0 0 256 0z" fill="#42A179" p-id="7574"></path><path d="M478.182344 137.204845c47.533455 0.687129 92.08861 19.013159 128.625778 55.550327 5.383251 5.383251 10.079373 6.64373 17.28976 5.611922 104.801603-14.775495 196.776436 51.423094 216.018266 155.54203a174.49607 174.49607 0 0 1-4.350327 81.317647c-1.947608 6.528837-0.687129 10.651608 3.550536 15.806188 86.704244 106.405647 34.819346 267.330928-97.700531 302.380061-7.559529 1.946492-10.881394 5.383251-13.515016 12.255651-49.251277 128.055773-214.644009 162.523747-311.084061 64.828793-4.811015-4.811015-8.933786-5.841708-15.462623-4.924793-106.290754 15.004166-198.379364-51.311547-217.392523-156.572723a171.740863 171.740863 0 0 1 4.696122-80.291416c1.947608-6.528837 0.687129-10.651608-3.435642-15.806188-87.048924-106.519425-34.24488-268.590292 98.731224-302.723625 6.64373-1.717821 9.735808-4.581229 12.140758-10.766501 28.634074-74.908166 98.16122-122.555399 181.886048-122.211835z m115.227887 461.246188c-60.132671 34.704453-118.317734 68.035765-176.04434 101.938196-13.057673 7.674423-24.167739 7.444636-37.224296-0.228671-45.242283-26.801359-90.828131-52.801813-136.413978-78.917159-3.321865-1.832715-6.070379-5.611922-11.338737-4.008994-6.185272 55.661874 11.224959 102.053089 56.9257 134.924828 46.044305 33.101525 96.669839 37.224296 146.836915 10.651608 51.311547-27.144924 100.907503-57.612828 151.189472-86.704244 2.863407-1.604044 6.070379-2.863407 6.070379-7.101072v-70.557839zM561.337168 219.442754c-1.145586-4.008993-4.127233-5.15458-6.413944-6.757508-45.815634-31.040139-94.608453-35.964932-144.0884-11.568523-49.938405 24.739974-76.511094 67.005072-78.000244 122.785185-1.48915 56.695913-0.228671 113.392941-0.572236 170.087739 0 6.070379 2.061386 9.277351 7.215965 12.025865 16.83688 9.277351 33.445089 19.128052 50.053299 28.634074 2.061386 1.145586 3.8941 3.665429 7.330858 1.48915 0-67.11885 0.228671-134.581264-0.111547-202.044793-0.111547-13.85858 5.15458-22.793481 17.178214-29.550989 34.819346-19.585394 69.295129-39.744139 103.885804-59.789107 14.546824-8.366013 29.092532-16.95512 43.524462-25.313324z m66.316828 265.613107v14.660601c0 63.683207-0.111547 127.480192 0.111546 191.163399 0.111547 12.939434-4.696122 21.761673-16.034858 27.946945-15.921081 8.700654-31.497481 17.982466-47.184314 27.031146-33.788654 19.585394-67.6922 39.171904-104.687825 60.590013 3.206972 1.145586 4.811015 1.374257 5.955486 2.291172 42.491538 31.039024 88.881638 38.140096 137.557333 18.666249s80.06163-56.467242 86.018231-108.581926c7.215965-63.683207 1.48915-128.055773 2.634736-192.08366 0.111547-3.435643-1.48915-5.383251-4.23878-6.987295-19.471617-11.224959-38.82834-22.449917-60.132671-34.704453z m-80.983007-86.590467c4.696122 2.863407 7.903094 4.696122 10.995172 6.528837 55.43878 32.070832 110.758205 64.25098 166.427887 95.98271 12.025865 6.872401 17.178214 15.921081 17.066667 29.664767-0.343564 53.030484-0.111547 106.062083-0.111547 159.092567 0 3.8941 0.343564 7.674423 0.572235 12.370544 2.863407-1.030693 4.581229-1.604044 6.300166-2.291172 49.823512-23.137046 79.374501-61.965386 84.070623-116.48502 4.924793-56.467242-17.638902-101.824418-66.088157-131.717856-48.796166-30.12434-99.191913-57.612828-148.786754-86.476688-4.350327-2.519843-7.559529-2.863407-12.140758-0.228671-18.784488 10.995172-37.797647 21.647895-58.299957 33.559982z m-263.202579-75.25173c-5.15458-0.687129-8.246658 1.717821-11.45363 3.321865-47.418562 23.824174-75.136837 62.30895-79.489394 114.99587-4.461874 54.634527 16.721987 99.533246 63.109856 128.854448 49.709734 31.383704 101.594632 59.445542 152.449952 88.995417 2.978301 1.717821 5.726815 3.206972 9.163573 1.145586 19.700288-11.45363 39.400575-22.907259 60.246449-34.93424-4.350327-2.634736-7.330858-4.581229-10.422937-6.413943-55.43878-32.070832-110.758205-64.25098-166.427887-95.867817-12.484322-7.101072-17.524009-16.378423-17.410231-30.581682 0.458458-56.237455 0.228671-112.590919 0.228671-169.515504z m147.867607 101.709526c4.811015-2.519843 8.017987-4.127233 11.110066-5.955486 54.863198-31.612375 109.84129-62.996078 164.362039-95.180689 13.057673-7.674423 24.167739-7.903094 37.224296-0.228671 45.929412 27.144924 92.202388 53.488941 138.361586 80.06163 2.748514 1.604044 5.039686 4.581229 9.735809 3.206972 6.070379-54.519634-10.422937-100.563939-54.978092-133.550571-46.272976-34.356427-97.471861-39.057011-148.555852-12.140758-51.311547 27.144924-100.907503 57.612828-151.304366 86.590466-2.863407 1.604044-5.955486 2.978301-5.955486 7.215965v69.980026z m162.066406 90.141002c0-15.691294-0.343564-28.748967 0.111546-41.691748 0.228671-5.955486-1.717821-9.392244-6.987294-12.255651q-34.356427-19.24183-68.266666-39.400575c-4.350327-2.634736-7.559529-2.634736-12.025865-0.111547q-33.845542 20.101856-68.266667 39.400575c-5.268357 2.978301-6.872401 6.413943-6.872401 12.370545 0.343564 25.544227 0.458458 51.2 0 76.744226-0.111547 6.987294 2.40495 10.651608 8.366013 13.744802 10.881394 5.611922 21.1939 12.140758 31.841046 18.211137 13.515015 7.674423 27.031146 21.52854 40.431268 21.416994 13.973473-0.111547 27.833168-13.629908 41.576854-21.416994 13.171451-7.559529 30.466789-12.599216 37.911425-23.937952 7.674423-12.025865 1.374257-30.353011 2.176279-43.066004z" fill="#FFFFFF"></path></svg>