<svg viewBox="0 0 1024 1024" version="1.1" xmlns="http://www.w3.org/2000/svg" fill="currentColor">
    <path d="M704 192a128 128 0 0 1 9.6 255.68L704 448h-64v128h64a128 128 0 0 1 127.68 118.4L832 704a128 128 0 0 1-255.68 9.6L576 704v-64H448v64a128 128 0 0 1-118.4 127.68L320 832a128 128 0 0 1-9.6-255.68L320 576h64V448H320c-62.784 0-115.648-45.44-126.208-107.328l-1.28-9.92L192 320a128 128 0 0 1 255.68-9.6L448 320v64h128V320a128 128 0 0 1 118.4-127.68L704 192z m0 448h-64v64a64 64 0 1 0 71.488-63.552L704 640z m-320 0H320a64 64 0 1 0 63.552 71.488L384 704v-64z m192-192H448v128h128V448zM320 256a64 64 0 0 0-63.616 55.296L256 318.464l0.384 7.68a64 64 0 0 0 56.192 57.408L320 384h64V320a64 64 0 0 0-49.28-62.336l-7.232-1.28L320 256z m384 0a64 64 0 0 0-63.552 56.512L640 320v64h64a64 64 0 0 0 62.336-49.28l1.28-7.232L768 320a64 64 0 0 0-64-64z"></path>
</svg>