<svg version="1.1" viewBox="0 0 1024 1024"
     xmlns="http://www.w3.org/2000/svg">
    <g>
        <path d="M 647.70 341.90 L 346.00 341.90 L 344.60 342.20 L 343.50 343.00 L 342.70 344.10 L 342.40 345.50 L 342.40 728.90 L 342.70 730.30 L 343.50 731.40 L 344.60 732.20 L 346.00 732.50 L 647.60 732.50 L 649.00 732.20 L 650.10 731.40 L 650.90 730.30 L 651.20 728.90 L 651.20 345.50 L 651.00 344.00 L 650.20 342.90 L 649.10 342.20 L 647.70 341.90 Z M 576.90 614.30 L 576.60 615.70 L 575.80 616.80 L 574.70 617.60 L 573.30 617.90 L 420.30 617.90 L 418.90 617.60 L 417.80 616.80 L 417.00 615.70 L 416.70 614.30 L 416.70 597.30 L 417.00 595.90 L 417.80 594.80 L 418.90 594.00 L 420.30 593.70 L 573.30 593.70 L 574.70 594.00 L 575.80 594.80 L 576.60 595.90 L 576.90 597.30 L 576.90 614.30 Z M 576.90 545.60 L 576.60 547.00 L 575.80 548.10 L 574.70 548.90 L 573.30 549.20 L 420.30 549.20 L 418.90 548.90 L 417.80 548.10 L 417.00 547.00 L 416.70 545.60 L 416.70 528.60 L 417.00 527.20 L 417.80 526.10 L 418.90 525.30 L 420.30 525.00 L 573.30 525.00 L 574.70 525.30 L 575.80 526.10 L 576.60 527.20 L 576.90 528.60 L 576.90 545.60 Z M 576.90 477.00 L 576.60 478.40 L 575.80 479.50 L 574.70 480.30 L 573.30 480.60 L 420.30 480.60 L 418.90 480.30 L 417.80 479.50 L 417.00 478.40 L 416.70 477.00 L 416.70 460.10 L 417.00 458.70 L 417.80 457.60 L 418.90 456.80 L 420.30 456.50 L 573.30 456.50 L 574.70 456.80 L 575.80 457.60 L 576.60 458.70 L 576.90 460.10 L 576.90 477.00 Z"
              fill="#b3b3b3" fill-opacity="0.35" fill-rule="nonzero"
              stroke="none"/>
    </g>
    <g>
        <g>
            <path d="M 643.20 305.00 L 633.20 305.20 L 623.40 305.70 L 613.80 306.70 L 604.30 308.10 L 595.00 309.90 L 583.30 312.70 L 572.10 316.10 L 561.00 320.10 L 550.30 324.60 L 539.80 329.70 L 529.70 335.30 L 519.90 341.40 L 510.40 347.90 L 501.30 355.00 L 492.60 362.50 L 484.30 370.50 L 476.40 378.90 L 469.00 387.70 L 462.00 396.80 L 455.50 406.30 L 449.40 416.20 L 443.90 426.40 L 439.00 436.90 L 434.50 447.80 L 430.60 458.90 L 427.90 468.00 L 425.70 477.20 L 423.70 486.50 L 422.20 496.10 L 421.10 505.80 L 415.40 500.20 L 409.40 494.90 L 403.20 490.00 L 396.70 485.30 L 389.90 481.00 L 382.90 477.00 L 375.80 473.40 L 368.40 470.20 L 360.70 467.30 L 352.90 464.80 L 344.90 462.80 L 336.80 461.20 L 328.60 460.00 L 320.10 459.20 L 311.50 458.90 L 302.90 459.10 L 294.50 459.70 L 286.30 460.80 L 278.30 462.20 L 270.40 464.10 L 262.60 466.40 L 255.00 469.10 L 247.60 472.20 L 240.40 475.60 L 233.40 479.40 L 224.90 484.60 L 216.90 490.40 L 209.20 496.60 L 202.00 503.30 L 195.20 510.40 L 188.80 518.00 L 183.00 525.90 L 177.60 534.30 L 173.70 541.20 L 170.20 548.40 L 167.00 555.70 L 164.20 563.20 L 161.80 571.00 L 159.80 578.90 L 158.20 586.90 L 157.00 595.10 L 156.30 603.40 L 156.00 612.00 L 154.80 764.10 L 860.90 769.40 L 862.70 528.10 L 862.50 517.60 L 861.90 507.20 L 860.80 497.10 L 859.30 487.10 L 857.30 477.30 L 854.90 467.50 L 852.00 457.90 L 848.70 448.60 L 845.10 439.50 L 841.00 430.50 L 836.60 421.80 L 831.80 413.30 L 826.60 405.00 L 821.10 397.00 L 815.20 389.20 L 809.00 381.70 L 802.50 374.50 L 795.80 367.60 L 788.70 361.00 L 781.20 354.70 L 773.60 348.70 L 765.60 343.10 L 757.50 337.80 L 749.00 332.80 L 740.30 328.20 L 731.50 324.00 L 722.40 320.20 L 713.10 316.80 L 703.60 313.80 L 693.90 311.20 L 684.10 309.10 L 674.20 307.40 L 664.00 306.10 L 653.70 305.30 L 643.20 305.00 Z"
                  fill="#b3b3b3" fill-opacity="0.1" fill-rule="nonzero"
                  stroke="none"/>
        </g>
        <g>
            <path d="M 275.40 290.90 L 271.60 291.20 L 268.10 292.10 L 264.80 293.40 L 261.90 295.20 L 262.40 290.70 L 262.20 287.60 L 260.70 281.90 L 257.80 276.80 L 253.80 272.70 L 248.80 269.70 L 246.00 268.80 L 239.90 267.90 L 233.80 268.70 L 228.40 270.90 L 223.90 274.40 L 220.30 278.90 L 218.00 284.30 L 217.40 287.20 L 217.10 291.80 L 211.30 290.40 L 206.20 290.50 L 203.30 291.00 L 197.90 293.20 L 195.50 294.90 L 191.40 298.90 L 188.40 303.90 L 187.40 306.70 L 186.50 312.80 L 187.20 318.80 L 189.40 324.10 L 191.50 327.30 L 194.10 330.00 L 197.20 332.20 L 199.70 333.60 L 205.20 335.30 L 208.30 335.60 L 275.20 336.00 L 281.20 335.30 L 286.60 333.10 L 289.00 331.40 L 293.10 327.40 L 296.10 322.40 L 297.70 316.70 L 298.00 313.50 L 297.20 307.40 L 294.90 302.10 L 293.20 299.60 L 289.20 295.60 L 284.20 292.70 L 281.40 291.70 L 275.40 290.90 Z"
                  fill="#b3b3b3" fill-opacity="0.3" fill-rule="nonzero"
                  stroke="none"/>
        </g>
        <g>
            <path d="M 844.60 241.10 L 840.80 241.40 L 837.30 242.30 L 834.00 243.60 L 831.10 245.40 L 831.50 240.90 L 831.30 237.80 L 829.80 232.10 L 826.90 227.10 L 822.90 223.00 L 817.90 220.00 L 815.10 219.00 L 809.00 218.10 L 802.90 218.90 L 797.50 221.10 L 793.00 224.60 L 789.40 229.10 L 787.10 234.50 L 786.50 237.40 L 786.20 241.90 L 780.40 240.50 L 775.30 240.60 L 772.30 241.10 L 767.00 243.30 L 764.50 245.00 L 760.50 249.00 L 757.50 254.00 L 756.50 256.80 L 755.60 262.90 L 756.30 268.90 L 758.50 274.20 L 760.60 277.30 L 763.20 280.00 L 766.30 282.30 L 768.80 283.70 L 774.30 285.40 L 777.40 285.70 L 844.30 286.20 L 850.30 285.40 L 855.70 283.20 L 858.10 281.60 L 862.20 277.60 L 865.20 272.60 L 866.80 266.90 L 867.10 263.70 L 866.40 257.60 L 865.40 254.90 L 864.10 252.30 L 862.50 249.90 L 858.50 245.80 L 853.40 242.90 L 850.70 241.90 L 844.60 241.10 Z"
                  fill="#b3b3b3" fill-opacity="0.3" fill-rule="nonzero"
                  stroke="none"/>
        </g>
        <g>
            <g>
                <path d="M 695.40 696.00 L 693.80 696.20 L 691.50 697.60 L 690.10 700.00 L 689.90 701.50 L 690.10 703.20 L 690.70 704.50 L 691.70 705.70 L 692.90 706.50 L 692.10 804.10 L 697.40 804.10 L 698.20 706.20 L 700.10 704.30 L 700.90 701.60 L 700.70 700.00 L 699.30 697.70 L 696.90 696.30 L 695.40 696.00 Z"
                      fill="#b3b3b3" fill-opacity="0.1" fill-rule="nonzero"
                      stroke="none"/>
                <path d="M 808.50 702.30 L 807.80 699.70 L 806.90 698.50 L 804.50 697.10 L 803.00 696.80 L 801.50 697.00 L 799.00 698.40 L 797.60 700.80 L 797.40 702.30 L 798.20 705.20 L 800.30 707.10 L 799.50 804.90 L 804.80 804.90 L 805.60 707.10 L 807.60 705.20 L 808.50 702.30 Z"
                      fill="#b3b3b3" fill-opacity="0.1" fill-rule="nonzero"
                      stroke="none"/>
            </g>
            <g>
                <path d="M 677.20 739.20 L 677.40 714.40 L 815.90 715.40 L 815.70 740.20 Z"
                      fill="#b3b3b3" fill-opacity="0.1" fill-rule="nonzero"
                      stroke="none"/>
            </g>
            <g>
                <path d="M 693.10 714.50 L 678.30 739.20 L 677.20 739.20 L 677.40 714.50 Z"
                      fill="#b3b3b3" fill-opacity="0.1" fill-rule="nonzero"
                      stroke="none"/>
            </g>
            <g>
                <path d="M 728.10 714.80 L 713.20 739.50 L 694.50 739.40 L 709.00 714.60 Z"
                      fill="#b3b3b3" fill-opacity="0.1" fill-rule="nonzero"
                      stroke="none"/>
            </g>
            <g>
                <path d="M 763.00 715.10 L 748.20 739.70 L 729.40 739.50 L 744.00 714.90 Z"
                      fill="#b3b3b3" fill-opacity="0.1" fill-rule="nonzero"
                      stroke="none"/>
            </g>
            <g>
                <path d="M 798.00 715.40 L 783.30 740.00 L 764.40 739.80 L 779.10 715.20 Z"
                      fill="#b3b3b3" fill-opacity="0.1" fill-rule="nonzero"
                      stroke="none"/>
            </g>
            <g>
                <path d="M 815.80 715.40 L 815.70 740.30 L 799.30 740.10 L 814.00 715.40 Z"
                      fill="#b3b3b3" fill-opacity="0.1" fill-rule="nonzero"
                      stroke="none"/>
            </g>
            <g>
                <path d="M 676.90 777.50 L 677.10 752.70 L 815.60 753.70 L 815.40 778.50 Z"
                      fill="#b3b3b3" fill-opacity="0.1" fill-rule="nonzero"
                      stroke="none"/>
            </g>
            <g>
                <path d="M 692.80 752.70 L 678.00 777.50 L 676.90 777.50 L 677.10 752.70 Z"
                      fill="#b3b3b3" fill-opacity="0.1" fill-rule="nonzero"
                      stroke="none"/>
            </g>
            <g>
                <path d="M 727.80 753.00 L 712.90 777.80 L 694.20 777.60 L 708.70 752.90 Z"
                      fill="#b3b3b3" fill-opacity="0.1" fill-rule="nonzero"
                      stroke="none"/>
            </g>
            <g>
                <path d="M 762.70 753.30 L 747.90 777.90 L 729.10 777.80 L 743.70 753.20 Z"
                      fill="#b3b3b3" fill-opacity="0.1" fill-rule="nonzero"
                      stroke="none"/>
            </g>
            <g>
                <path d="M 797.70 753.60 L 783.10 778.20 L 764.10 778.10 L 778.80 753.50 Z"
                      fill="#b3b3b3" fill-opacity="0.1" fill-rule="nonzero"
                      stroke="none"/>
            </g>
            <g>
                <path d="M 815.50 753.80 L 815.40 778.50 L 799.00 778.40 L 813.70 753.80 Z"
                      fill="#b3b3b3" fill-opacity="0.1" fill-rule="nonzero"
                      stroke="none"/>
            </g>
            <g>
                <path d="M 815.70 740.30 L 815.80 715.40 L 677.50 714.80 L 677.70 714.60 L 677.50 739.40 L 813.30 740.30 L 677.00 739.70 L 677.30 714.50 L 815.80 715.70 L 815.70 740.30 Z"
                      fill="#b3b3b3" fill-opacity="0.1" fill-rule="nonzero"
                      stroke="none"/>
            </g>
            <path d="M 815.40 778.50 L 815.50 753.60 L 677.40 752.90 L 677.20 777.70 L 813.00 778.60 L 676.60 778.00 L 676.90 753.00 L 815.40 754.20 L 815.40 778.50 Z"
                  fill="#b3b3b3" fill-opacity="0.1" fill-rule="nonzero"
                  stroke="none"/>
        </g>
    </g>
</svg>
