<svg xml:space="preserve" style="enable-background:new 0 0 1024 1024;"
     viewBox="0 0 1024 1024" y="0px" x="0px"
     xmlns="http://www.w3.org/2000/svg" id="图层_1" version="1.1">
<style type="text/css">
	.st0{opacity:0.1;fill:#B3B3B3;enable-background:new    ;}
	.st1{opacity:0.3;fill:#B3B3B3;enable-background:new    ;}
	.st2{opacity:0.1;}
	.st3{fill:#B3B3B3;}
	.st4{opacity:0.35;fill:#B3B3B3;enable-background:new    ;}
</style>
    <g>
	<g>
		<path d="M643.7,305L643.7,305c-115.9-0.9-211.6,87.4-222.1,200.8c-27.7-28.6-66.6-46.6-109.6-46.9l0,0
			c-85.2-0.6-154.8,67.9-155.4,153.1l-1.2,152.1l263.4,2l45.1,0.3l397.6,3l1.8-241.3C864.3,405.8,765.9,305.9,643.7,305z"
              class="st0"></path>
        <path d="M275.9,290.9c-5.1,0-9.8,1.7-13.5,4.3c0.3-1.5,0.5-3,0.5-4.5c0.2-12.5-9.9-22.7-22.5-22.8
			c-12.6-0.1-22.6,9.9-22.8,22.5c0,0.5,0,0.9,0,1.4c-2.4-0.9-5.1-1.5-7.8-1.5c-12.4-0.2-22.6,9.9-22.8,22.5
			c-0.2,12.3,9.6,22.4,21.8,22.8l0,0l66.9,0.4c12.4,0.2,22.6-9.9,22.8-22.5C298.5,300.9,288.3,291,275.9,290.9z"
              class="st1"></path>
        <path d="M845.1,241.1c-5.1,0-9.8,1.7-13.5,4.3c0.3-1.5,0.4-3,0.4-4.5c0.1-12.4-9.9-22.6-22.5-22.8
			c-12.6-0.1-22.6,9.9-22.8,22.5c0,0.4,0,0.9,0,1.3c-2.4-0.9-5.1-1.5-7.8-1.5c-12.5-0.2-22.6,9.9-22.8,22.5
			c-0.1,12.3,9.6,22.3,21.8,22.8l0,0l66.9,0.5c12.4,0.1,22.6-9.9,22.8-22.5C867.8,251.1,857.6,241.2,845.1,241.1z"
              class="st1"></path>
        <g>
			<g class="st2">
				<path d="M695.9,696c-3.2,0-5.5,2.4-5.5,5.5c0,2.3,1.2,4.1,3,5l-0.8,97.6h5.3l0.8-97.9c1.6-0.9,2.7-2.7,2.7-4.6
					C701.4,698.4,699,696.2,695.9,696z" class="st3"></path>
                <path d="M809,702.3c0-2.8-2.4-5.4-5.5-5.5c-3.1,0-5.6,2.4-5.6,5.5c0,2.1,1.2,3.9,2.9,4.8l-0.8,97.8h5.3l0.8-97.8
					C807.8,706.2,808.8,704.4,809,702.3z" class="st3"></path>
			</g>

            <rect height="138.5" width="24.8" class="st0"
                  transform="matrix(7.448104e-03 -1 1 7.448104e-03 14.1358 1468.8942)"
                  y="658.1" x="734.6"></rect>
            <polygon
                    points="693.6,714.5 693.3,714.9 678.8,739.2 677.7,739.2 677.9,714.5"
                    class="st0"></polygon>
            <polygon
                    points="728.6,714.8 713.7,739.5 695,739.4 700.8,729.5 709.5,714.6"
                    class="st0"></polygon>
            <polygon points="763.5,715.1 748.7,739.7 729.9,739.5 744.5,714.9"
                     class="st0"></polygon>
            <polygon points="798.5,715.4 783.8,740 764.9,739.8 779.6,715.2"
                     class="st0"></polygon>
            <polygon points="816.3,715.4 816.2,740.3 799.8,740.1 814.5,715.4"
                     class="st0"></polygon>

            <rect height="138.5" width="24.8" class="st0"
                  transform="matrix(7.448104e-03 -1 1 7.448104e-03 -24.4392 1506.5898)"
                  y="696.4" x="734.3"></rect>
            <polygon
                    points="693.3,752.7 693,753.2 678.5,777.5 677.4,777.5 677.6,752.7"
                    class="st0"></polygon>
            <polygon
                    points="728.3,753 713.4,777.8 694.7,777.6 700.5,767.7 709.2,752.9"
                    class="st0"></polygon>
            <polygon points="763.2,753.3 748.4,777.9 729.6,777.8 744.2,753.2"
                     class="st0"></polygon>
            <polygon points="798.2,753.6 783.6,778.2 764.6,778.1 779.3,753.5"
                     class="st0"></polygon>
            <polygon points="816,753.8 815.9,778.5 799.5,778.4 814.2,753.8"
                     class="st0"></polygon>
            <path d="M816.2,740.3c0,0,0-0.1,0-0.4v-1.4c0-1.1,0-2.7,0-4.8c0-4.2,0.1-10.4,0.1-18.3l0.1,0.2L678,714.8l0,0
				l0.2-0.2c0,8.4-0.2,16.8-0.2,24.8l-0.1-0.1l98.7,0.9l29.3,0.1h7.9l0,0h-7.9l-29.3-0.1l-98.7-0.5h-0.4l0.2-25.2h0.1l138.4,1.2h0.1
				v0.1c0,8-0.1,14.1-0.1,18.3c0,2.3,0,3.8,0,4.8v1.1V740.3z"
                  class="st0"></path>
            <path d="M815.9,778.5c0,0,0-0.1,0-0.4v-1.4c0-1.1,0-2.7,0-4.8c0-4.2,0.1-10.4,0.1-18.3l0.1,0.1L677.7,753l0,0
				l0.2-0.1c0,8.4-0.2,16.8-0.2,24.8l-0.1-0.1l98.7,0.9l29.3,0.1h7.9l0,0h-7.9l-29.3-0.1l-98.7-0.5h-0.4l0.2-25h0.1l138.4,1.2h0.1
				v0.1c0,8-0.1,14.1-0.1,18.3c0,2.3,0,3.8,0,4.8v1.1C815.9,778.2,815.9,778.5,815.9,778.5z"
                  class="st0"></path>
		</g>
	</g>
        <g>
		<path d="M651.9,690.6c-2.6-1.9-3.3-5.5-1.7-8.3l11.3-19.5c1.7-2.8,5-3.9,8-2.7l15.9,6.4c2.4-7.9,3.8-16.3,3.8-25
			s-1.3-17.1-3.8-25l-15.9,6.4c-0.8,0.3-1.7,0.5-2.4,0.5c-2.3,0-4.3-1.2-5.6-3.2l-11.3-19.5c-1.6-2.8-0.9-6.3,1.7-8.3l13.5-10.5
			c-11.5-12.1-26.4-21-43.2-25l-2.4,16.9c-0.4,3.2-3.2,5.6-6.4,5.6h-22.5c-3.2,0-6-2.4-6.5-5.6L582,557c-16.8,4-31.8,12.9-43.2,25
			l13.5,10.5c2.5,2,3.3,5.6,1.6,8.3l-11.3,19.5c-1.2,2.1-3.3,3.2-5.5,3.2c-0.8,0-1.7-0.2-2.4-0.5l-15.9-6.4
			c-2.4,7.9-3.8,16.3-3.8,25s1.3,17.1,3.8,25l15.9-6.4c3-1.2,6.5,0,8,2.7l11.2,19.5c1.7,2.8,0.9,6.3-1.6,8.3l-13.5,10.5
			c11.5,12.2,26.4,21,43.2,25l2.4-17c0.4-3.1,3.1-5.5,6.4-5.5h22.5c3.2,0,6,2.4,6.4,5.5l2.4,17c16.8-4.1,31.8-12.9,43.2-25.1
			L651.9,690.6z M602.1,662.4c-11.6,0-21-9.5-21-21s9.4-21,21-21c11.5,0,21,9.5,21,21S613.7,662.4,602.1,662.4z"
              class="st4"></path>
            <path d="M495.9,633l25.8-44.7c3.4-6,10.8-8.7,17.2-6.6c11.4-12.2,26.4-21,43.2-24.9l0.9,7c0.9-7.9,1.5-15.9,1.5-24.2
			c0-19.8-3-39-8.4-57.1l-36.3,14.7c-1.8,0.8-3.8,1.1-5.5,1.1c-5.1,0-10.1-2.7-12.8-7.3l-25.8-44.7c-3.7-6.3-2.1-14.5,3.8-19
			l30.7-24c-26.2-27.9-60.4-48.1-98.8-57.1l-5.4,38.7c-1.1,7.3-7.2,12.8-14.6,12.8h-51.6c-7.3,0-13.6-5.4-14.5-12.8l-5.4-38.7
			c-38.4,9.1-72.6,29.4-98.8,57.3l30.7,24c5.8,4.5,7.3,12.6,3.8,19.1L249.8,491c-2.7,4.7-7.6,7.4-12.7,7.4c-1.8,0-3.8-0.3-5.6-1.1
			l-36.3-14.7c-5.4,18.1-8.4,37.3-8.4,57.1c0,19.8,3,39,8.4,57.1l36.3-14.7c6.9-2.7,14.7-0.2,18.3,6.3l25.8,44.7
			c3.8,6.3,2.1,14.6-3.8,19l-30.7,24c26.2,27.9,60.4,48.2,98.8,57.3l5.4-38.7c1-7.3,7.2-12.8,14.5-12.8h51.6
			c7.3,0,13.6,5.4,14.6,12.8l5.4,38.7c38.4-9.1,72.6-29.4,98.8-57.2l-30.8-24C493.8,647.6,492.2,639.5,495.9,633z M385.7,587.6
			c-26.4,0-47.8-21.4-47.8-47.8c0-26.4,21.4-47.8,47.8-47.8s47.8,21.4,47.8,47.8C433.7,566.1,412.1,587.6,385.7,587.6z"
                  class="st4"></path>
	</g>
</g>
</svg>
